<svg width="493" height="493" xmlns="http://www.w3.org/2000/svg" xmlns:xlink="http://www.w3.org/1999/xlink" xml:space="preserve" overflow="hidden"><defs><filter id="fx0" x="-10%" y="-10%" width="120%" height="120%" filterUnits="userSpaceOnUse" primitiveUnits="userSpaceOnUse"><feComponentTransfer color-interpolation-filters="sRGB"><feFuncR type="discrete" tableValues="0 0"/><feFuncG type="discrete" tableValues="0 0"/><feFuncB type="discrete" tableValues="0 0"/><feFuncA type="linear" slope="0.4" intercept="0"/></feComponentTransfer><feGaussianBlur stdDeviation="6.11111 6.11111"/></filter><filter id="fx1" x="-10%" y="-10%" width="120%" height="120%" filterUnits="userSpaceOnUse" primitiveUnits="userSpaceOnUse"><feComponentTransfer color-interpolation-filters="sRGB"><feFuncR type="discrete" tableValues="0 0"/><feFuncG type="discrete" tableValues="0 0"/><feFuncB type="discrete" tableValues="0 0"/><feFuncA type="linear" slope="0.4" intercept="0"/></feComponentTransfer><feGaussianBlur stdDeviation="6.11111 6.11111"/></filter><clipPath id="clip2"><rect x="2353" y="1456" width="493" height="493"/></clipPath><clipPath id="clip3"><rect x="22" y="22" width="192" height="192"/></clipPath></defs><g clip-path="url(#clip2)" transform="translate(-2353 -1456)"><g filter="url(#fx0)" transform="translate(2352 1455)"><g><path d="M19.7227 247.223C19.7227 121.578 121.578 19.7228 247.223 19.7228 372.868 19.7228 474.723 121.578 474.723 247.223 474.723 372.867 372.868 474.723 247.223 474.723 121.578 474.723 19.7227 372.867 19.7227 247.223Z" fill="#FF0000" fill-rule="evenodd"/></g></g><path d="M2362 1692.5C2362 1566.86 2463.86 1465 2589.5 1465 2715.14 1465 2817 1566.86 2817 1692.5 2817 1818.14 2715.14 1920 2589.5 1920 2463.86 1920 2362 1818.14 2362 1692.5Z" fill="#FF0000" fill-rule="evenodd"/><path d="M2427 1692.5C2427 1602.75 2499.75 1530 2589.5 1530 2679.25 1530 2752 1602.75 2752 1692.5 2752 1782.25 2679.25 1855 2589.5 1855 2499.75 1855 2427 1782.25 2427 1692.5Z" fill="#FFFFFF" fill-rule="evenodd"/><g clip-path="url(#clip3)" filter="url(#fx1)" transform="translate(2482 1585)"><g><g><g><g><path d="M169.406 42.8594 152.141 25.5937 97.5 80.2343 42.8594 25.5937 25.5937 42.8594 80.2343 97.5 25.5937 152.141 42.8594 169.406 97.5 114.766 152.141 169.406 169.406 152.141 114.766 97.5Z" fill="#FF0000" transform="matrix(1 0 0 1 19.7227 19.7228)"/></g></g></g></g></g><g><g><g><path d="M169.406 42.8594 152.141 25.5937 97.5 80.2343 42.8594 25.5937 25.5937 42.8594 80.2343 97.5 25.5937 152.141 42.8594 169.406 97.5 114.766 152.141 169.406 169.406 152.141 114.766 97.5Z" fill="#FF0000" transform="matrix(1 0 0 1 2492 1595)"/></g></g></g></g></svg>