<svg width="493" height="493" xmlns="http://www.w3.org/2000/svg" xmlns:xlink="http://www.w3.org/1999/xlink" xml:space="preserve" overflow="hidden"><defs><filter id="fx0" x="-10%" y="-10%" width="120%" height="120%" filterUnits="userSpaceOnUse" primitiveUnits="userSpaceOnUse"><feComponentTransfer color-interpolation-filters="sRGB"><feFuncR type="discrete" tableValues="0 0"/><feFuncG type="discrete" tableValues="0 0"/><feFuncB type="discrete" tableValues="0 0"/><feFuncA type="linear" slope="0.4" intercept="0"/></feComponentTransfer><feGaussianBlur stdDeviation="6.11111 6.11111"/></filter><filter id="fx1" x="-10%" y="-10%" width="120%" height="120%" filterUnits="userSpaceOnUse" primitiveUnits="userSpaceOnUse"><feComponentTransfer color-interpolation-filters="sRGB"><feFuncR type="discrete" tableValues="0 0"/><feFuncG type="discrete" tableValues="0 0"/><feFuncB type="discrete" tableValues="0 0"/><feFuncA type="linear" slope="0.4" intercept="0"/></feComponentTransfer><feGaussianBlur stdDeviation="6.11111 6.11111"/></filter><clipPath id="clip2"><rect x="3100" y="189" width="493" height="493"/></clipPath><clipPath id="clip3"><rect x="1" y="28" width="234" height="179"/></clipPath></defs><g clip-path="url(#clip2)" transform="translate(-3100 -189)"><g filter="url(#fx0)" transform="translate(3099 188)"><g><path d="M19.7227 247.223C19.7227 121.578 121.578 19.7227 247.223 19.7227 372.868 19.7227 474.723 121.578 474.723 247.223 474.723 372.868 372.868 474.723 247.223 474.723 121.578 474.723 19.7227 372.868 19.7227 247.223Z" fill="#00B050" fill-rule="evenodd"/></g></g><path d="M3109 425.5C3109 299.855 3210.85 198 3336.5 198 3462.14 198 3564 299.855 3564 425.5 3564 551.145 3462.14 653 3336.5 653 3210.85 653 3109 551.145 3109 425.5Z" fill="#00B050" fill-rule="evenodd"/><path d="M3174 425.5C3174 335.754 3246.75 263 3336.5 263 3426.25 263 3499 335.754 3499 425.5 3499 515.246 3426.25 588 3336.5 588 3246.75 588 3174 515.246 3174 425.5Z" fill="#FFFFFF" fill-rule="evenodd"/><g clip-path="url(#clip3)" filter="url(#fx1)" transform="translate(3229 318)"><g><g><g><g><path d="M194.613 51.8164 90.6135 150.129 40.6448 98.9414 23.3791 115.394 89.801 183.644 107.27 167.394 211.067 68.8789Z" fill="#00B050"/></g></g></g></g></g><g><g><g><path d="M3413.89 360.094 3309.89 458.406 3259.92 407.219 3242.66 423.672 3309.08 491.922 3326.55 475.672 3430.34 377.156Z" fill="#00B050"/></g></g></g></g></svg>