<svg width="493" height="492" xmlns="http://www.w3.org/2000/svg" xmlns:xlink="http://www.w3.org/1999/xlink" xml:space="preserve" overflow="hidden"><defs><filter id="fx0" x="-10%" y="-10%" width="120%" height="120%" filterUnits="userSpaceOnUse" primitiveUnits="userSpaceOnUse"><feComponentTransfer color-interpolation-filters="sRGB"><feFuncR type="discrete" tableValues="0 0"/><feFuncG type="discrete" tableValues="0 0"/><feFuncB type="discrete" tableValues="0 0"/><feFuncA type="linear" slope="0.4" intercept="0"/></feComponentTransfer><feGaussianBlur stdDeviation="6.11111 6.11111"/></filter><clipPath id="clip1"><rect x="3068" y="839" width="493" height="492"/></clipPath></defs><g clip-path="url(#clip1)" transform="translate(-3068 -839)"><g filter="url(#fx0)" transform="translate(3067 838)"><g><path d="M19.7227 246.723C19.7227 121.354 121.578 19.7228 247.223 19.7228 372.868 19.7228 474.723 121.354 474.723 246.723 474.723 372.091 372.868 473.723 247.223 473.723 121.578 473.723 19.7227 372.091 19.7227 246.723Z" fill="#A6A6A6" fill-rule="evenodd"/></g></g><path d="M3077 1075C3077 949.631 3178.86 848 3304.5 848 3430.14 848 3532 949.631 3532 1075 3532 1200.37 3430.14 1302 3304.5 1302 3178.86 1302 3077 1200.37 3077 1075Z" fill="#A6A6A6" fill-rule="evenodd"/><path d="M3142 1075.5C3142 985.754 3214.75 913 3304.5 913 3394.25 913 3467 985.754 3467 1075.5 3467 1165.25 3394.25 1238 3304.5 1238 3214.75 1238 3142 1165.25 3142 1075.5Z" fill="#FFFFFF" fill-rule="evenodd"/><path d="M3207 1075.5C3207 1021.65 3250.65 978 3304.5 978 3358.35 978 3402 1021.65 3402 1075.5 3402 1129.35 3358.35 1173 3304.5 1173 3250.65 1173 3207 1129.35 3207 1075.5Z" fill="#7F7F7F" fill-rule="evenodd"/></g></svg>